<?xml version="1.0" encoding="iso-8859-1"?>
<!-- Generator: Adobe Illustrator 19.0.0, SVG Export Plug-In . SVG Version: 6.00 Build 0)  -->
<svg version="1.1" id="Layer_1" xmlns="http://www.w3.org/2000/svg" xmlns:xlink="http://www.w3.org/1999/xlink" x="0px" y="0px"
	 viewBox="0 0 512 512" style="enable-background:new 0 0 512 512;" xml:space="preserve">
<g>
	<polygon style="fill:#FF6F52;" points="246.427,368.462 238.095,398.364 206.409,512 164.548,465.351 104.603,483.612 
		138.718,361.256 146.076,334.887 204.379,341.106 	"/>
	<polygon style="fill:#FF6F52;" points="407.404,483.612 347.447,465.351 305.598,512 273.9,398.364 265.568,368.474 
		307.617,341.106 365.931,334.887 373.289,361.256 	"/>
</g>
<g>
	<path style="fill:#E25749;" d="M204.379,341.106l42.049,27.356l-8.332,29.902c-11.513-7.417-22.145-19.258-33.716-23.013
		c-17.908-5.821-44.055,4.19-58.96-6.666c-2.711-1.983-4.894-4.506-6.701-7.429l7.358-26.37L204.379,341.106z"/>
	<path style="fill:#E25749;" d="M373.289,361.256c-1.807,2.922-3.99,5.445-6.701,7.429c-14.916,10.855-41.063,0.845-58.971,6.666
		c-11.571,3.755-22.204,15.597-33.716,23.013l-8.332-29.891l42.049-27.367l58.314-6.22L373.289,361.256z"/>
</g>
<path style="fill:#FCD577;" d="M422.986,188.116c0-19.154,17.581-40.861,11.97-58.144c-5.816-17.912-32.993-25.097-43.844-40.005
	c-10.959-15.059-9.468-43.087-24.527-54.047c-14.909-10.851-41.052-0.845-58.964-6.661C290.336,23.647,275.154,0,256,0
	s-34.336,23.647-51.618,29.259c-17.912,5.816-44.055-4.19-58.965,6.661c-15.059,10.959-13.569,38.988-24.527,54.047
	c-10.851,14.909-38.028,22.093-43.844,40.004c-5.612,17.283,11.969,38.991,11.969,58.145s-17.581,40.861-11.97,58.144
	c5.816,17.912,32.993,25.097,43.844,40.005c10.959,15.059,9.469,43.087,24.527,54.047c14.909,10.851,41.052,0.845,58.964,6.661
	c17.283,5.612,32.465,29.259,51.619,29.259s34.336-23.647,51.618-29.259c17.912-5.816,44.055,4.19,58.965-6.661
	c15.059-10.959,13.569-38.988,24.527-54.047c10.851-14.909,38.028-22.093,43.844-40.004
	C440.567,228.978,422.986,207.269,422.986,188.116z"/>
<circle style="fill:#DCE8EF;" cx="256" cy="188.11" r="118.482"/>
<g>
	<rect x="213.2" y="133.375" style="fill:#415E72;" width="85.593" height="17.603"/>
	<rect x="213.2" y="225.253" style="fill:#415E72;" width="85.593" height="17.603"/>
	<rect x="188.826" y="179.308" style="fill:#415E72;" width="134.337" height="17.603"/>
</g>
<g>
</g>
<g>
</g>
<g>
</g>
<g>
</g>
<g>
</g>
<g>
</g>
<g>
</g>
<g>
</g>
<g>
</g>
<g>
</g>
<g>
</g>
<g>
</g>
<g>
</g>
<g>
</g>
<g>
</g>
</svg>
